<svg width="200" height="200" viewBox="0 0 200 200" fill="none" xmlns="http://www.w3.org/2000/svg">
<path fill-rule="evenodd" clip-rule="evenodd" d="M162.5 111.304H37.5V169.154C37.5 171.913 39.3094 174.347 41.9531 175.141C54.5125 178.907 89.8312 189.504 98.2031 192.016C99.375 192.366 100.625 192.366 101.797 192.016C110.169 189.504 145.488 178.907 158.047 175.141C160.691 174.347 162.5 171.913 162.5 169.154C162.5 154.666 162.5 111.304 162.5 111.304Z" fill="#CADCF0"/>
<path fill-rule="evenodd" clip-rule="evenodd" d="M162.5 111.304H99.9999C99.9999 111.304 99.3937 192.279 99.9999 192.279C100.606 192.279 101.209 192.191 101.797 192.016C110.169 189.504 145.487 178.907 158.047 175.141C160.691 174.347 162.5 171.913 162.5 169.154C162.5 154.666 162.5 111.304 162.5 111.304Z" fill="#A4BBDB"/>
<path fill-rule="evenodd" clip-rule="evenodd" d="M100 131.582L37.5003 111.304C37.5003 111.304 26.5409 127.554 21.6409 134.816C21.0909 135.632 20.9566 136.654 21.2753 137.582C21.5972 138.51 22.3316 139.232 23.2659 139.538C35.1378 143.394 70.2816 154.813 79.5003 157.807C80.8222 158.238 82.2722 157.741 83.0534 156.588C87.2441 150.404 100 131.582 100 131.582Z" fill="#E9F3FC"/>
<path fill-rule="evenodd" clip-rule="evenodd" d="M162.5 111.304L100 131.582C100 131.582 112.756 150.404 116.947 156.588C117.728 157.741 119.178 158.238 120.5 157.807C129.719 154.813 164.863 143.394 176.734 139.538C177.669 139.232 178.403 138.51 178.725 137.582C179.044 136.654 178.909 135.632 178.359 134.816C173.459 127.554 162.5 111.304 162.5 111.304Z" fill="#E9F3FC"/>
<path fill-rule="evenodd" clip-rule="evenodd" d="M84.8737 68.7063C84.0925 67.5594 82.6456 67.0626 81.3237 67.4938C72.1112 70.4844 36.9581 81.9063 25.0862 85.7657C24.1519 86.0688 23.4144 86.7907 23.0956 87.7188C22.7769 88.6469 22.9112 89.6719 23.4612 90.4844C27.9737 97.1782 37.5019 111.303 37.5019 111.303L100.002 90.9563C100.002 90.9563 88.7769 74.4469 84.8737 68.7063Z" fill="#CADCF0"/>
<path fill-rule="evenodd" clip-rule="evenodd" d="M176.541 90.4844C177.091 89.6719 177.225 88.6469 176.906 87.7188C176.588 86.7907 175.85 86.0688 174.916 85.7657C163.044 81.9063 127.891 70.4844 118.678 67.4938C117.356 67.0626 115.909 67.5594 115.128 68.7063C111.225 74.4469 100 90.9563 100 90.9563L162.5 111.303C162.5 111.303 172.028 97.1782 176.541 90.4844Z" fill="#E9F3FC"/>
<path fill-rule="evenodd" clip-rule="evenodd" d="M162.5 111.304L100 90.957L37.5 111.304L100 131.582L162.5 111.304Z" fill="#CADCF0"/>
<path fill-rule="evenodd" clip-rule="evenodd" d="M100 131.582V90.957L37.5 111.304L100 131.582Z" fill="#A4BBDB"/>
<path fill-rule="evenodd" clip-rule="evenodd" d="M87.4451 99.9316C86.1451 99.0816 84.9732 98.1722 83.9326 97.2191C82.6638 96.0535 80.6857 96.1379 79.517 97.4097C78.3513 98.6785 78.4357 100.657 79.7076 101.822C80.9857 102.997 82.4263 104.116 84.0263 105.163C85.4701 106.107 87.4076 105.7 88.3513 104.257C89.2951 102.813 88.8888 100.875 87.4451 99.9316Z" fill="#347BFA"/>
<path fill-rule="evenodd" clip-rule="evenodd" d="M77.7052 90.332C76.7771 89.0726 75.9927 87.807 75.3489 86.5413C74.5677 85.0038 72.6833 84.3913 71.1458 85.1726C69.6083 85.9538 68.9958 87.8382 69.7771 89.3757C70.5708 90.932 71.5333 92.4913 72.6739 94.0382C73.6958 95.4257 75.6521 95.7226 77.0427 94.7007C78.4302 93.6757 78.7271 91.7195 77.7052 90.332Z" fill="#347BFA"/>
<path fill-rule="evenodd" clip-rule="evenodd" d="M73.1376 77.5788C73.1689 76.3194 73.3532 75.0975 73.6907 73.9256C74.1657 72.2694 73.2064 70.535 71.547 70.06C69.8907 69.585 68.1564 70.5444 67.6814 72.2038C67.2032 73.8788 66.9345 75.6256 66.8876 77.4225C66.847 79.1475 68.2095 80.5819 69.9345 80.6225C71.6595 80.6663 73.0939 79.3038 73.1376 77.5788Z" fill="#347BFA"/>
<path fill-rule="evenodd" clip-rule="evenodd" d="M77.9429 67.1416C78.746 66.3979 79.646 65.7104 80.6304 65.0885C82.0898 64.1666 82.5273 62.2354 81.6085 60.7791C80.6867 59.3197 78.7554 58.8822 77.296 59.801C75.9742 60.6354 74.7742 61.5572 73.696 62.5572C72.4304 63.7291 72.3554 65.7072 73.5273 66.9729C74.6992 68.2385 76.6773 68.3135 77.9429 67.1416Z" fill="#347BFA"/>
<path fill-rule="evenodd" clip-rule="evenodd" d="M89.5648 61.7508C91.1367 61.4602 92.8023 61.2727 94.5585 61.2008C96.2835 61.1258 97.621 59.6664 97.5492 57.9446C97.4773 56.2227 96.0179 54.8821 94.2929 54.9539C92.2304 55.0414 90.2742 55.2633 88.4273 55.6039C86.7335 55.9196 85.6085 57.5508 85.9242 59.2446C86.2367 60.9414 87.8679 62.0633 89.5648 61.7508Z" fill="#347BFA"/>
<path fill-rule="evenodd" clip-rule="evenodd" d="M105.853 61.5666C108.519 61.5978 111 61.5041 113.303 61.301C115.022 61.1478 116.294 59.6291 116.141 57.9103C115.988 56.1947 114.469 54.9228 112.75 55.076C110.641 55.2603 108.369 55.3478 105.925 55.3166C104.2 55.2978 102.785 56.6822 102.766 58.4041C102.744 60.1291 104.128 61.5478 105.853 61.5666Z" fill="#347BFA"/>
<path fill-rule="evenodd" clip-rule="evenodd" d="M123.577 59.3847C126.671 58.4379 129.283 57.2254 131.471 55.8347C132.924 54.9066 133.355 52.9754 132.427 51.5191C131.502 50.066 129.568 49.6347 128.111 50.5629C126.352 51.6816 124.243 52.6441 121.749 53.4066C120.102 53.9129 119.171 55.6597 119.677 57.3097C120.18 58.9597 121.93 59.8879 123.577 59.3847Z" fill="#347BFA"/>
<path fill-rule="evenodd" clip-rule="evenodd" d="M139.483 47.0885C140.958 44.0385 141.523 40.8135 141.38 37.7041C141.298 35.9791 139.833 34.6479 138.111 34.7291C136.389 34.8104 135.055 36.2729 135.136 37.9947C135.236 40.1072 134.855 42.2979 133.855 44.3697C133.105 45.9229 133.755 47.7947 135.308 48.5447C136.861 49.2947 138.733 48.6416 139.483 47.0885Z" fill="#347BFA"/>
<path fill-rule="evenodd" clip-rule="evenodd" d="M137.491 26.6537C135.213 23.5755 132.123 21.4318 128.754 20.7412C127.063 20.3974 125.41 21.4849 125.063 23.1755C124.72 24.8662 125.81 26.5193 127.498 26.8662C129.441 27.263 131.154 28.5974 132.47 30.3755C133.498 31.7599 135.457 32.0505 136.841 31.0255C138.229 29.9974 138.52 28.038 137.491 26.6537Z" fill="#347BFA"/>
<path fill-rule="evenodd" clip-rule="evenodd" d="M96.6641 21.3472C100.045 2.20036 129.348 3.43786 112.289 21.3472H96.6641Z" fill="#CADCF0"/>
<path fill-rule="evenodd" clip-rule="evenodd" d="M96.6641 26.1973C100.045 45.341 129.348 44.1066 112.289 26.1973H96.6641Z" fill="#CADCF0"/>
<path fill-rule="evenodd" clip-rule="evenodd" d="M96.3828 26.9287H117.308C119.033 26.9287 120.433 25.5287 120.433 23.8037C120.433 22.0787 119.033 20.6787 117.308 20.6787H96.3828C94.6609 20.6787 93.2578 22.0787 93.2578 23.8037C93.2578 25.5287 94.6609 26.9287 96.3828 26.9287Z" fill="#347BFA"/>
</svg>
